<svg width="20" height="20" viewBox="0 0 20 20" fill="none" xmlns="http://www.w3.org/2000/svg">
<g id="icon-ruler" clip-path="url(#clip0_836_4211)">
<g id="Group">
<path id="Vector" d="M18.8918 5.7213L14.2787 1.10818C14.2207 1.05009 14.1518 1.004 14.076 0.972556C14.0002 0.941112 13.9189 0.924927 13.8368 0.924927C13.7547 0.924927 13.6734 0.941112 13.5976 0.972556C13.5218 1.004 13.4529 1.05009 13.3949 1.10818L1.10806 13.3951C1.04996 13.453 1.00388 13.5219 0.972434 13.5977C0.94099 13.6736 0.924805 13.7548 0.924805 13.8369C0.924805 13.919 0.94099 14.0003 0.972434 14.0761C1.00388 14.1519 1.04996 14.2208 1.10806 14.2788L5.71993 18.8919C5.77784 18.9502 5.84669 18.9964 5.92252 19.0279C5.99836 19.0595 6.07968 19.0757 6.16181 19.0757C6.24394 19.0757 6.32526 19.0595 6.40109 19.0279C6.47692 18.9964 6.54577 18.9502 6.60368 18.8919L18.8912 6.60568C18.9493 6.54767 18.9955 6.47878 19.027 6.40292C19.0585 6.32707 19.0747 6.24575 19.0748 6.16362C19.0749 6.08148 19.0587 6.00014 19.0273 5.92425C18.9959 5.84835 18.9499 5.77939 18.8918 5.7213ZM16.5199 7.20943L14.6549 5.34693C14.5969 5.2889 14.5279 5.24288 14.4521 5.21149C14.3762 5.1801 14.2949 5.16396 14.2128 5.16399C14.1307 5.16402 14.0495 5.18022 13.9736 5.21166C13.8978 5.2431 13.8289 5.28917 13.7709 5.34724C13.7128 5.40531 13.6668 5.47424 13.6354 5.55009C13.604 5.62595 13.5879 5.70724 13.5879 5.78934C13.588 5.87143 13.6042 5.95271 13.6356 6.02854C13.667 6.10438 13.7131 6.17327 13.7712 6.2313L15.6362 8.0938L14.4568 9.27318L13.3631 8.1788C13.3051 8.12077 13.2362 8.07474 13.1604 8.04332C13.0847 8.0119 13.0034 7.99571 12.9214 7.99568C12.8394 7.99565 12.7581 8.01178 12.6823 8.04315C12.6065 8.07451 12.5376 8.1205 12.4796 8.17849C12.4216 8.23648 12.3756 8.30532 12.3441 8.3811C12.3127 8.45688 12.2965 8.53811 12.2965 8.62014C12.2965 8.70218 12.3126 8.78341 12.344 8.85922C12.3753 8.93502 12.4213 9.0039 12.4793 9.06193L13.5731 10.1569L12.3943 11.3357L10.5299 9.4713C10.4127 9.35411 10.2538 9.28827 10.0881 9.28827C9.92232 9.28827 9.76337 9.35411 9.64618 9.4713C9.52899 9.58849 9.46315 9.74744 9.46315 9.91318C9.46315 10.0789 9.52899 10.2379 9.64618 10.3551L11.5099 12.2194L10.3318 13.3976L9.23556 12.3032C9.17752 12.2451 9.10861 12.1991 9.03277 12.1677C8.95692 12.1363 8.87563 12.1202 8.79355 12.1202C8.71147 12.1203 8.6302 12.1365 8.5544 12.168C8.4786 12.1995 8.40976 12.2457 8.35181 12.3038C8.29371 12.3618 8.24763 12.4307 8.21618 12.5065C8.18474 12.5823 8.16855 12.6636 8.16855 12.7457C8.16855 12.8278 8.18474 12.909 8.21618 12.9849C8.24763 13.0607 8.29371 13.1296 8.35181 13.1876L9.44743 14.2819L8.26805 15.4607L6.40493 13.5976C6.3469 13.5395 6.27801 13.4935 6.2022 13.4621C6.12638 13.4307 6.04512 13.4145 5.96306 13.4145C5.88099 13.4145 5.79973 13.4307 5.72391 13.4621C5.6481 13.4935 5.57921 13.5395 5.52118 13.5976C5.46315 13.6556 5.41712 13.7245 5.38572 13.8003C5.35431 13.8761 5.33815 13.9574 5.33815 14.0394C5.33815 14.1215 5.35431 14.2027 5.38572 14.2786C5.41712 14.3544 5.46315 14.4233 5.52118 14.4813L7.38431 16.3444L6.16181 17.5669L2.43368 13.8376L13.8368 2.43443L17.5662 6.1638L16.5199 7.20943Z" fill="white"/>
</g>
</g>
<defs>
<clipPath id="clip0_836_4211">
<rect width="20" height="20" fill="white"/>
</clipPath>
</defs>
</svg>
