<svg width="20" height="20" viewBox="0 0 20 20" fill="none" xmlns="http://www.w3.org/2000/svg">
<g id="icon_help" clip-path="url(#clip0_836_4161)">
<path id="Vector" d="M10.0003 18.3333C14.6027 18.3333 18.3337 14.6023 18.3337 9.99996C18.3337 5.39759 14.6027 1.66663 10.0003 1.66663C5.39795 1.66663 1.66699 5.39759 1.66699 9.99996C1.66699 14.6023 5.39795 18.3333 10.0003 18.3333Z" stroke="#3C3C3B" stroke-width="1.66667" stroke-linecap="round" stroke-linejoin="round"/>
<path id="Vector_2" d="M7.5752 7.50011C7.77112 6.94316 8.15782 6.47353 8.66682 6.17439C9.17583 5.87524 9.77427 5.76589 10.3562 5.8657C10.9381 5.96551 11.4659 6.26805 11.8461 6.71972C12.2263 7.17138 12.4344 7.74304 12.4335 8.33344C12.4335 10.0001 9.93353 10.8334 9.93353 10.8334" stroke="#3C3C3B" stroke-width="1.66667" stroke-linecap="round" stroke-linejoin="round"/>
<path id="Vector_3" d="M10 14.1666H10.0088" stroke="#3C3C3B" stroke-width="1.66667" stroke-linecap="round" stroke-linejoin="round"/>
</g>
<defs>
<clipPath id="clip0_836_4161">
<rect width="20" height="20" fill="white"/>
</clipPath>
</defs>
</svg>
