<svg width="14" height="11" viewBox="0 0 14 11" fill="none" xmlns="http://www.w3.org/2000/svg">
<path id="Vector" d="M12.078 0H1.342C0.6039 0 0 0.6039 0 1.342V9.394C0 10.1321 0.6039 10.736 1.342 10.736H12.078C12.8161 10.736 13.42 10.1321 13.42 9.394V1.342C13.42 0.6039 12.8161 0 12.078 0ZM11.8096 2.85175L7.42126 5.59614C6.98511 5.87125 6.43489 5.87125 5.99874 5.59614L1.6104 2.85175C1.54312 2.81398 1.4842 2.76295 1.43721 2.70175C1.39022 2.64055 1.35613 2.57045 1.33702 2.4957C1.3179 2.42094 1.31416 2.34309 1.326 2.26684C1.33785 2.1906 1.36504 2.11755 1.40593 2.05212C1.44683 1.98669 1.50057 1.93024 1.56392 1.88618C1.62726 1.84212 1.69889 1.81137 1.77446 1.7958C1.85003 1.78022 1.92797 1.78014 2.00358 1.79556C2.07918 1.81098 2.15087 1.84158 2.2143 1.88551L6.71 4.697L11.2057 1.88551C11.2691 1.84158 11.3408 1.81098 11.4164 1.79556C11.492 1.78014 11.57 1.78022 11.6455 1.7958C11.7211 1.81137 11.7927 1.84212 11.8561 1.88618C11.9194 1.93024 11.9732 1.98669 12.0141 2.05212C12.055 2.11755 12.0822 2.1906 12.094 2.26684C12.1058 2.34309 12.1021 2.42094 12.083 2.4957C12.0639 2.57045 12.0298 2.64055 11.9828 2.70175C11.9358 2.76295 11.8769 2.81398 11.8096 2.85175Z" fill="#478ECC"/>
</svg>
