<svg width="15" height="15" viewBox="0 0 15 15" fill="none" xmlns="http://www.w3.org/2000/svg">
<g id="uiw:facebook" clip-path="url(#clip0_84_15929)">
<path id="Vector" fill-rule="evenodd" clip-rule="evenodd" d="M14.172 0H0.828C0.3705 0 0 0.3705 0 0.828V14.172C0 14.6295 0.3705 15 0.828 15H8.0115V9.19125H6.057V6.92775H8.0115V5.2575C8.0115 3.3195 9.195 2.265 10.9237 2.265C11.7517 2.265 12.4627 2.3265 12.6705 2.35425V4.37925H11.472C10.5315 4.37925 10.35 4.82625 10.35 5.48175V6.927H12.5917L12.2992 9.1905H10.3492V15H14.172C14.6295 15 15 14.6295 15 14.172V0.828C15 0.3705 14.6295 0 14.172 0Z" fill="#478ECC"/>
</g>
<defs>
<clipPath id="clip0_84_15929">
<rect width="15" height="15" fill="white"/>
</clipPath>
</defs>
</svg>
