<svg width="12" height="13" viewBox="0 0 12 13" fill="none" xmlns="http://www.w3.org/2000/svg">
<path id="Vector" d="M10.6667 1.3H10V0H8.66667V1.3H3.33333V0H2V1.3H1.33333C0.979711 1.3 0.640573 1.43696 0.390524 1.68076C0.140476 1.92456 0 2.25522 0 2.6V11.7C0 12.0448 0.140476 12.3754 0.390524 12.6192C0.640573 12.863 0.979711 13 1.33333 13H10.6667C11.4 13 12 12.415 12 11.7V2.6C12 1.885 11.4 1.3 10.6667 1.3ZM10.6667 11.7H1.33333V5.2H10.6667V11.7ZM10.6667 3.9H1.33333V2.6H10.6667V3.9ZM2.66667 6.5H6V9.75H2.66667V6.5Z" fill="#478ECC"/>
</svg>
