<svg width="16" height="16" viewBox="0 0 16 16" fill="none" xmlns="http://www.w3.org/2000/svg">
<rect width="16" height="16" rx="4" fill="#478ECC"/>
<path d="M13.1385 8.15152L14 9.00606L9.98154 13L7.84615 10.8788L8.70769 10.0242L9.98154 11.2848L13.1385 8.15152ZM6.30769 10.8788L8.15385 12.697H2V11.4848C2 10.1455 4.20308 9.06061 6.92308 9.06061L8.08615 9.12727L6.30769 10.8788ZM6.92308 3C7.57592 3 8.20202 3.25541 8.66365 3.71004C9.12528 4.16468 9.38462 4.78129 9.38462 5.42424C9.38462 6.06719 9.12528 6.68381 8.66365 7.13844C8.20202 7.59307 7.57592 7.84848 6.92308 7.84848C6.27024 7.84848 5.64413 7.59307 5.18251 7.13844C4.72088 6.68381 4.46154 6.06719 4.46154 5.42424C4.46154 4.78129 4.72088 4.16468 5.18251 3.71004C5.64413 3.25541 6.27024 3 6.92308 3Z" fill="white"/>
</svg>
