<svg width="20" height="20" viewBox="0 0 20 20" fill="none" xmlns="http://www.w3.org/2000/svg">
<g id="ps:chat" clip-path="url(#clip0_84_15465)">
<path id="Vector" d="M0 10.2344C0 11.3542 0.31901 12.4089 0.957031 13.3984C1.59505 14.388 2.44792 15.1953 3.51562 15.8203C3.46354 16.0026 3.40495 16.237 3.33984 16.5234C3.27474 16.8099 3.18359 17.2591 3.06641 17.8711C2.94922 18.4831 2.90365 18.9909 2.92969 19.3945C2.95573 19.7982 3.08594 20 3.32031 20C4.10156 20 4.88932 19.7917 5.68359 19.375C6.47786 18.9583 7.10938 18.5417 7.57812 18.125C8.04688 17.7083 8.29427 17.5 8.32031 17.5C9.7526 17.5 11.1458 17.2266 12.5 16.6797C12.3438 16.6276 12.0508 16.4714 11.6211 16.2109C11.1914 15.9505 10.9245 15.8203 10.8203 15.8203H8.32031C7.85156 15.8203 7.35677 16.0807 6.83594 16.6016C6.10677 17.2526 5.41667 17.7214 4.76562 18.0078L5 15L4.33594 14.4141C2.5651 13.2682 1.67969 11.875 1.67969 10.2344C1.67969 9.81771 1.75781 9.34896 1.91406 8.82812C1.8099 8.67188 1.73828 8.43099 1.69922 8.10547C1.66016 7.77995 1.64062 7.48698 1.64062 7.22656V6.32812L1.67969 5.82031C0.559896 7.01823 0 8.48958 0 10.2344ZM11.6797 0C9.36198 0 7.38932 0.677083 5.76172 2.03125C4.13411 3.38542 3.32031 5.01302 3.32031 6.91406C3.32031 8.78906 4.1276 10.3255 5.74219 11.5234C7.35677 12.7214 9.33594 13.3203 11.6797 13.3203C11.7057 13.3203 11.9727 13.6003 12.4805 14.1602C12.9883 14.7201 13.6589 15.2799 14.4922 15.8398C15.3255 16.3997 16.1328 16.6797 16.9141 16.6797C17.0964 16.6797 17.207 16.5365 17.2461 16.25C17.2852 15.9635 17.2656 15.6185 17.1875 15.2148C17.1094 14.8112 17.0182 14.401 16.9141 13.9844C16.8099 13.5677 16.7188 13.2161 16.6406 12.9297L16.4844 12.5C17.5521 11.849 18.4049 11.0352 19.043 10.0586C19.681 9.08203 20 8.03385 20 6.91406C20 5.01302 19.1862 3.38542 17.5586 2.03125C15.931 0.677083 13.9714 0 11.6797 0ZM15.6641 11.0938L14.5703 11.7578L15 13.0078C15.0521 13.138 15.1172 13.3594 15.1953 13.6719C15.2734 13.9844 15.3516 14.2318 15.4297 14.4141C14.8568 14.0234 14.1797 13.4375 13.3984 12.6562C12.7995 12.0052 12.2526 11.6797 11.7578 11.6797C9.9349 11.6797 8.36589 11.2565 7.05078 10.4102C5.73568 9.5638 5.07812 8.39844 5.07812 6.91406C5.05208 5.45573 5.68359 4.21875 6.97266 3.20312C8.26172 2.1875 9.83073 1.67969 11.6797 1.67969C13.5286 1.67969 15.0977 2.1875 16.3867 3.20312C17.6758 4.21875 18.3203 5.45573 18.3203 6.91406C18.3203 8.55469 17.4349 9.94792 15.6641 11.0938Z" fill="white"/>
</g>
<defs>
<clipPath id="clip0_84_15465">
<rect width="20" height="20" fill="white"/>
</clipPath>
</defs>
</svg>
